<?xml version="1.0" standalone="no"?>
<!DOCTYPE svg PUBLIC "-//W3C//DTD SVG 20010904//EN"
 "http://www.w3.org/TR/2001/REC-SVG-20010904/DTD/svg10.dtd">
<svg version="1.0" xmlns="http://www.w3.org/2000/svg"
 width="346.000000pt" height="346.000000pt" viewBox="0 0 346.000000 346.000000"
 preserveAspectRatio="xMidYMid meet">
<metadata>
Created by potrace 1.14, written by Peter Selinger 2001-2017
</metadata>
<g transform="translate(0.000000,346.000000) scale(0.100000,-0.100000)"
fill="#000000" stroke="none">
<path d="M1726 3139 c-28 -4 -53 -6 -57 -3 -13 7 -99 -15 -156 -41 -29 -14
-58 -25 -63 -25 -5 0 -14 -9 -20 -20 -6 -11 -19 -20 -29 -20 -10 0 -30 -10
-45 -21 -15 -12 -30 -19 -33 -16 -3 3 -21 -10 -40 -29 -19 -19 -37 -32 -42
-30 -13 8 -28 -8 -49 -54 -12 -25 -26 -52 -31 -60 -56 -83 -97 -238 -107 -395
-3 -44 -7 -86 -9 -92 -5 -16 23 -171 37 -200 6 -11 8 -25 5 -30 -3 -5 -2 -15
3 -23 6 -9 11 -2 16 26 11 61 34 113 54 119 12 4 16 12 13 26 -4 15 -11 18
-27 13 -17 -6 -19 -4 -10 7 7 8 15 30 19 49 4 19 12 41 16 50 35 60 71 174 78
245 9 90 15 105 68 156 36 34 76 51 158 65 17 3 44 14 62 24 18 10 49 23 69
29 32 9 40 7 70 -17 23 -18 46 -26 76 -28 24 0 71 -4 105 -8 48 -6 63 -5 70 7
7 12 17 12 77 0 78 -16 130 -40 178 -81 18 -16 55 -42 82 -60 28 -18 67 -57
92 -93 l43 -62 -6 -72 c-5 -62 -2 -83 21 -150 15 -42 29 -96 31 -119 10 -87
11 -136 3 -136 -4 0 -8 5 -8 10 0 6 -4 10 -10 10 -5 0 -9 -11 -8 -24 1 -14 7
-24 13 -23 6 1 12 -29 15 -73 6 -73 6 -74 19 -43 7 18 21 35 32 38 10 4 19 12
19 18 0 7 7 26 16 42 30 55 45 138 51 291 4 105 2 171 -7 219 -7 38 -14 75
-15 84 -3 34 -51 118 -85 151 -3 3 -14 23 -25 45 -24 49 -111 135 -173 171
-26 15 -58 35 -71 46 -13 10 -30 18 -39 18 -8 0 -49 17 -91 37 -61 30 -89 37
-143 39 -37 2 -76 7 -87 13 -22 12 -54 12 -125 0z"/>
<path d="M1357 2449 c-50 -43 -54 -65 -9 -48 36 14 190 9 223 -7 43 -21 75
-10 65 23 -9 27 -62 50 -132 58 -32 3 -68 8 -79 10 -13 3 -37 -10 -68 -36z"/>
<path d="M1984 2386 c-9 -24 14 -46 51 -46 17 0 45 -4 61 -9 23 -8 80 -17 126
-20 3 -1 21 -13 38 -27 17 -15 33 -24 36 -21 7 7 -13 36 -60 88 -32 33 -43 39
-74 38 -20 -1 -67 2 -104 6 -58 7 -68 5 -74 -9z"/>
<path d="M1190 2280 c0 -5 7 -10 16 -10 8 0 12 5 9 10 -3 6 -10 10 -16 10 -5
0 -9 -4 -9 -10z"/>
<path d="M1383 2260 c-40 -18 -58 -49 -30 -51 6 -1 24 -3 40 -5 21 -2 27 1 27
17 0 10 5 19 10 19 6 0 10 -4 10 -9 0 -38 84 -57 95 -21 8 25 32 26 40 1 6
-20 45 -36 45 -19 0 20 -58 66 -96 77 -56 16 -93 13 -141 -9z"/>
<path d="M2005 2186 c-17 -7 -36 -20 -44 -29 -12 -15 -11 -17 7 -17 11 0 25 7
32 15 17 20 27 19 35 -4 9 -30 75 -35 97 -7 17 21 17 21 24 1 10 -25 23 -35
52 -35 27 0 29 21 4 43 -48 44 -147 59 -207 33z"/>
<path d="M972 2138 c-19 -19 -14 -28 17 -28 15 0 41 -10 56 -22 25 -19 26 -19
16 -2 -33 58 -65 76 -89 52z"/>
<path d="M2370 2127 c0 -10 8 -17 18 -17 9 0 13 4 7 8 -5 4 -13 11 -17 16 -5
5 -8 2 -8 -7z"/>
<path d="M1081 2008 c-1 -10 -5 -18 -11 -18 -12 0 -13 -20 -2 -38 15 -23 37
-3 38 33 0 20 -3 30 -7 24 -5 -8 -8 -7 -12 2 -4 10 -6 9 -6 -3z"/>
<path d="M1106 1855 c6 -138 13 -207 19 -213 9 -10 -6 271 -15 288 -5 9 -7
-23 -4 -75z"/>
<path d="M2540 1930 c0 -5 9 -10 19 -10 11 0 27 -10 35 -22 15 -22 16 -22 16
-2 0 11 -5 25 -12 32 -15 15 -58 16 -58 2z"/>
<path d="M2450 1840 c-23 -23 -26 -53 -6 -69 11 -9 16 -9 22 1 8 12 13 88 7
88 -2 0 -12 -9 -23 -20z"/>
<path d="M1600 1831 c0 -5 -9 -7 -20 -4 -11 3 -20 1 -20 -5 0 -17 42 -42 70
-42 14 -1 43 -9 65 -20 22 -11 57 -19 78 -20 49 0 128 19 145 35 12 10 8 15
-19 29 -40 20 -60 20 -85 1 -28 -21 -59 -18 -112 10 -46 25 -102 33 -102 16z"/>
<path d="M2393 1705 c0 -22 2 -30 4 -17 2 12 2 30 0 40 -3 9 -5 -1 -4 -23z"/>
<path d="M1478 1643 c-35 -6 -36 -26 -2 -60 l26 -26 17 21 c17 22 117 47 126
31 3 -4 20 -5 39 -2 19 3 36 1 40 -6 5 -7 12 -7 26 1 14 9 24 9 42 0 13 -7 39
-14 58 -16 46 -4 80 -16 80 -28 0 -5 5 -6 12 -2 7 5 9 2 5 -8 -3 -9 -3 -19 0
-22 12 -12 93 43 93 63 0 17 -89 33 -238 43 -211 14 -292 17 -324 11z"/>
<path d="M1130 1594 c0 -30 29 -122 56 -176 21 -42 24 -61 24 -165 0 -71 4
-113 9 -104 11 18 26 8 76 -47 93 -104 136 -143 148 -134 13 10 67 9 225 -7
135 -13 195 -9 216 12 10 9 21 17 26 17 5 0 23 13 39 29 17 16 38 31 48 34 14
4 13 5 -4 6 -13 0 -23 4 -23 9 0 4 -20 15 -43 25 -31 12 -82 19 -172 23 -145
6 -210 25 -272 77 -21 18 -49 41 -63 52 -60 49 -219 221 -225 244 -4 14 -10
28 -14 31 -5 3 -18 25 -29 50 -14 30 -21 38 -22 24z"/>
<path d="M1641 1531 c-10 -6 -10 -10 -1 -16 13 -8 24 -1 19 14 -3 6 -10 7 -18
2z"/>
<path d="M1740 1510 c8 -5 20 -10 25 -10 6 0 3 5 -5 10 -8 5 -19 10 -25 10 -5
0 -3 -5 5 -10z"/>
<path d="M2322 1500 c-7 -11 -12 -25 -12 -32 0 -7 7 0 15 16 18 33 15 45 -3
16z"/>
<path d="M1549 1505 c-6 -22 0 -35 31 -69 47 -52 79 -66 145 -66 46 0 55 3 55
18 0 12 13 22 45 31 28 8 45 19 45 28 0 11 -4 13 -12 5 -32 -25 -144 -31 -205
-11 -18 6 -41 20 -50 33 -17 21 -52 41 -54 31z"/>
<path d="M1698 1503 c7 -3 16 -2 19 1 4 3 -2 6 -13 5 -11 0 -14 -3 -6 -6z"/>
<path d="M2265 1402 c-16 -20 -35 -40 -42 -45 -6 -4 -10 -14 -7 -22 4 -10 -1
-15 -16 -15 -18 0 -20 -4 -14 -22 3 -13 3 -20 -2 -15 -12 12 -84 -64 -84 -90
0 -20 5 -23 40 -23 39 0 40 -1 40 -33 0 -22 5 -34 14 -34 13 0 20 33 30 142 2
17 20 65 40 108 21 43 36 80 34 82 -2 2 -17 -13 -33 -33z m-68 -199 c-3 -10
-5 -4 -5 12 0 17 2 24 5 18 2 -7 2 -21 0 -30z"/>
<path d="M1973 1143 c9 -2 25 -2 35 0 9 3 1 5 -18 5 -19 0 -27 -2 -17 -5z"/>
<path d="M1940 1110 c0 -13 5 -18 15 -14 8 4 15 12 15 20 0 8 -7 14 -15 14 -8
0 -15 -9 -15 -20z"/>
<path d="M1154 1026 c-26 -28 -54 -128 -53 -189 l1 -62 13 40 c7 22 13 36 14
30 2 -16 27 28 35 60 9 37 8 41 -15 37 -16 -3 -17 1 -9 28 5 18 14 38 21 46
15 18 8 27 -7 10z"/>
<path d="M2261 896 c7 -15 15 -23 17 -16 3 7 -3 19 -13 28 -15 16 -16 15 -4
-12z"/>
<path d="M2196 834 c4 -16 10 -31 14 -34 3 -3 10 -13 13 -24 4 -11 13 -16 22
-12 8 3 15 0 15 -7 0 -7 7 -3 15 7 17 23 20 40 5 31 -5 -3 -10 -1 -10 4 0 6
-7 11 -15 11 -7 0 -18 6 -22 13 -4 6 -16 18 -26 26 -17 13 -18 12 -11 -15z"/>
</g>
</svg>
